<?xml version="1.0" encoding="UTF-8"?>
<svg version="1.1" xmlns="http://www.w3.org/2000/svg" width="1146" height="1463">
<path d="M0 0 C7.39081439 -0.32606534 7.39081439 -0.32606534 11.296875 1.87109375 C14.80800898 5.93084241 17.18189133 9.23741177 16.96875 14.875 C14.75148793 22.49361561 7.27759886 28.39383748 1.38671875 33.33984375 C-9.54273297 42.98227592 -16.93032567 55.05867452 -24.50512695 67.32958984 C-25.12907349 68.34013428 -25.12907349 68.34013428 -25.765625 69.37109375 C-26.38280396 70.37197021 -26.38280396 70.37197021 -27.01245117 71.39306641 C-30.31524869 76.69291944 -33.90824114 81.66444646 -37.7265625 86.609375 C-39.44110549 88.842347 -41.05401882 91.10935487 -42.640625 93.43359375 C-43.32125 94.34109375 -44.001875 95.24859375 -44.703125 96.18359375 C-45.363125 96.18359375 -46.023125 96.18359375 -46.703125 96.18359375 C-47.08017578 97.26833984 -47.08017578 97.26833984 -47.46484375 98.375 C-48.80814694 101.42179808 -50.42056013 103.53627346 -52.515625 106.12109375 C-65.72379457 123.19048965 -75.09651223 143.19076639 -84.7956543 162.38757324 C-85.68087197 164.13955167 -86.56795123 165.89058911 -87.45507812 167.64160156 C-93.51771724 179.62418851 -99.44325593 191.66273182 -105.18847656 203.80053711 C-109.17671526 212.18138155 -113.34203188 220.46908006 -117.51467896 228.75900269 C-124.8960123 243.42974152 -132.11607276 258.13413869 -138.703125 273.18359375 C-138.99541992 273.84343262 -139.28771484 274.50327148 -139.58886719 275.18310547 C-154.36780966 308.85837108 -162.79684159 346.02451519 -168.703125 382.18359375 C-167.82466919 381.86720947 -167.82466919 381.86720947 -166.9284668 381.54443359 C-88.78286969 353.70596148 2.50800663 351.69276868 83.296875 367.18359375 C84.17408203 367.34972168 85.05128906 367.51584961 85.95507812 367.68701172 C103.89276087 371.15207922 121.19011217 377.23056386 138.32617188 383.47167969 C140.24368459 384.16437878 142.16761065 384.8356335 144.09375 385.50390625 C154.18773178 389.07098165 163.72056422 393.63135452 173.33984375 398.3125 C179.0915203 401.10509651 184.90159946 403.75304529 190.734375 406.37109375 C198.08262379 409.66998703 205.33210081 413.10318927 212.46459961 416.84838867 C215.29773085 418.31245932 217.05548068 419.18359375 220.296875 419.18359375 C220.956875 418.19359375 221.616875 417.20359375 222.296875 416.18359375 C222.956875 416.18359375 223.616875 416.18359375 224.296875 416.18359375 C224.626875 415.19359375 224.956875 414.20359375 225.296875 413.18359375 C225.956875 413.18359375 226.616875 413.18359375 227.296875 413.18359375 C227.56765869 412.5891748 227.83844238 411.99475586 228.11743164 411.38232422 C229.28250429 409.21038377 230.45437178 407.75924504 232.16796875 406.00390625 C233.02068359 405.11687012 233.02068359 405.11687012 233.890625 404.21191406 C234.4990625 403.58381836 235.1075 402.95572266 235.734375 402.30859375 C241.8530288 395.86148461 247.49634568 389.22470966 252.83691406 382.12353516 C253.85940698 380.76488487 254.88792152 379.41075511 255.92089844 378.06005859 C265.20511148 365.91325733 273.54104251 353.35721658 281.296875 340.18359375 C281.96928223 339.04156494 281.96928223 339.04156494 282.65527344 337.87646484 C302.12869644 304.47976552 317.01604234 267.63247949 322.296875 229.18359375 C322.3901004 228.51747574 322.48332581 227.85135773 322.57937622 227.16505432 C324.66114361 211.76955003 324.65311762 196.38282457 324.609375 180.87109375 C324.60745307 179.52284761 324.60561242 178.17460134 324.60385132 176.82635498 C324.56764793 157.77120733 324.1971032 139.0491014 321.296875 120.18359375 C321.11995117 118.96833008 320.94302734 117.75306641 320.76074219 116.50097656 C318.16253587 98.85202067 314.57959202 81.49678117 310.296875 64.18359375 C310.14637695 63.44318848 309.99587891 62.7027832 309.84082031 61.93994141 C309.45141435 59.98077831 309.45141435 59.98077831 307.359375 59.05859375 C306.67875 58.76984375 305.998125 58.48109375 305.296875 58.18359375 C302.81354487 55.70026362 302.99826315 54.67472697 302.796875 51.24609375 C302.57971971 47.5598827 302.41597921 46.36225007 300.296875 43.18359375 C299.63020833 36.18359375 299.63020833 36.18359375 301.921875 32.74609375 C307.00637914 29.40102524 311.53827673 30.30516351 317.296875 31.18359375 C318.67246399 31.11062538 320.04749265 31.02655928 321.421875 30.93359375 C338.20005304 30.84842533 353.57338324 44.69649461 364.86865234 55.78613281 C366.13675614 57.02692361 367.42814442 58.24381726 368.72265625 59.45703125 C396.53206907 86.03156783 411.40474025 125.12957063 425.296875 160.18359375 C425.74434082 161.30217773 426.19180664 162.42076172 426.65283203 163.57324219 C440.44540856 198.19840871 450.7249791 233.87630056 459.75061035 270.00250244 C460.24713531 271.98499622 460.74969755 273.96597548 461.25292969 275.94677734 C482.62286846 360.11089179 490.03067078 451.83486949 475.453125 543.80078125 C475.2804007 544.87525009 475.10767639 545.94971893 474.92971802 547.05674744 C474.38669413 550.4325669 473.84206916 553.80812415 473.296875 557.18359375 C473.12371765 558.25572113 472.9505603 559.32784851 472.77215576 560.4324646 C472.42818262 562.5618115 472.08415813 564.69115011 471.74008179 566.82048035 C471.05464129 571.06447191 470.37065864 575.3086977 469.68701172 579.55297852 C469.3409628 581.69798978 468.99394313 583.84284464 468.64599609 585.98754883 C467.64206875 592.17874542 466.65821595 598.37241329 465.70516968 604.57165527 C465.35871186 606.78801163 464.98992208 608.99874227 464.61254883 611.20996094 C462.5819125 624.47308583 463.10656711 637.89736125 463.21783447 651.27716064 C463.42348518 676.53425455 463.16678812 701.40376769 460.109375 726.49609375 C460.00016724 727.40779327 459.89095947 728.3194928 459.77844238 729.25881958 C458.98103585 735.9042796 458.14971237 742.54503181 457.296875 749.18359375 C457.18430359 750.06132446 457.07173218 750.93905518 456.95574951 751.84338379 C451.11439396 797.07426255 441.17638521 841.45777053 429.89526367 885.61450195 C428.33475424 891.81226507 427.09476794 898.05546143 425.88549805 904.32983398 C424.11759482 913.36803046 421.92829365 922.29859797 419.73828125 931.2421875 C418.85465193 934.85211548 417.99914283 938.46436729 417.19921875 942.09375 C415.52671633 949.65236584 413.4576478 956.75286506 410.515625 963.9375 C409.17829255 967.49943354 408.2256201 971.05732794 407.296875 974.74609375 C406.11750262 979.40176135 404.76225432 983.67843435 402.796875 988.05859375 C400.75130573 992.70141613 399.48107976 997.30125317 398.421875 1002.24609375 C395.48100474 1015.8112998 390.26570884 1028.68243476 384.296875 1041.18359375 C381.81863145 1046.60819352 379.5020923 1052.07673076 377.32421875 1057.62890625 C376.034228 1060.83671594 374.66735043 1064.00964618 373.296875 1067.18359375 C373.02335205 1067.82377441 372.7498291 1068.46395508 372.46801758 1069.12353516 C367.67690075 1080.305972 362.38416167 1091.12318771 356.57910156 1101.81347656 C355.30070068 1104.17652221 354.04404972 1106.55023468 352.7890625 1108.92578125 C348.38620294 1117.16313907 343.74311996 1124.43774709 337.86328125 1131.70703125 C334.71546911 1135.78380526 332.29710686 1140.25471709 329.796875 1144.74609375 C325.33896354 1152.72257948 320.40444853 1159.39855899 314.296875 1166.18359375 C313.4615625 1167.20195313 312.62625 1168.2203125 311.765625 1169.26953125 C309.67329809 1171.73927156 307.60885139 1173.87926916 305.171875 1175.99609375 C304.17800781 1176.87201172 304.17800781 1176.87201172 303.1640625 1177.765625 C301.296875 1179.18359375 301.296875 1179.18359375 298.296875 1180.18359375 C298.296875 1180.84359375 298.296875 1181.50359375 298.296875 1182.18359375 C297.20632813 1183.04597656 297.20632813 1183.04597656 296.09375 1183.92578125 C293.03079972 1186.39838636 290.84839713 1189.1595814 288.546875 1192.30859375 C284.09792753 1198.23386236 279.38909296 1203.79342687 274.296875 1209.18359375 C273.23726562 1210.32248047 273.23726562 1210.32248047 272.15625 1211.484375 C267.21054973 1216.63466359 261.90214668 1220.89411398 256.09375 1225.04296875 C253.19485382 1227.16012292 253.19485382 1227.16012292 250.5625 1229.94921875 C248.296875 1232.18359375 248.296875 1232.18359375 246.296875 1232.18359375 C246.09320312 1232.71855469 245.88953125 1233.25351563 245.6796875 1233.8046875 C243.72057298 1237.17502858 241.01006628 1239.62577676 238.171875 1242.24609375 C237.55731445 1242.81610107 236.94275391 1243.3861084 236.30957031 1243.97338867 C230.58055656 1249.15585624 224.3944079 1253.43938679 217.97265625 1257.70703125 C213.16780306 1260.90538745 208.74373048 1264.51010444 204.296875 1268.18359375 C192.27515746 1277.99949156 180.0334612 1287.15700342 166.98120117 1295.56542969 C155.19742002 1303.15696869 144.04269711 1311.21704083 133.08398438 1319.94628906 C124.14849321 1327.05703461 115.23563712 1333.74423359 105.453125 1339.64453125 C101.69357669 1341.91427767 98.03510347 1344.31781507 94.3762207 1346.74560547 C79.85807745 1356.36082459 64.78186819 1365.0899279 49.44921875 1373.33984375 C45.26460695 1375.60903587 41.35057544 1378.06132169 37.421875 1380.74609375 C32.04156199 1384.31124541 26.7400683 1386.79023728 20.6328125 1388.94921875 C16.33149049 1390.54080863 12.23018386 1392.48679643 8.09619141 1394.4597168 C4.18482138 1396.3193436 0.2459077 1398.07410948 -3.74194336 1399.76318359 C-9.74242986 1402.30700186 -15.373642 1405.06063778 -20.953125 1408.43359375 C-27.06224973 1412.04734373 -32.76525756 1413.88408607 -39.703125 1415.18359375 C-41.0369287 1415.51503996 -42.3702409 1415.8484686 -43.703125 1416.18359375 C-44.66605469 1416.38597656 -45.62898437 1416.58835937 -46.62109375 1416.796875 C-47.70003906 1417.02761719 -48.77898438 1417.25835938 -49.890625 1417.49609375 C-50.95667969 1417.71910156 -52.02273438 1417.94210937 -53.12109375 1418.171875 C-55.90373224 1418.95781106 -58.1847411 1419.79591209 -60.78125 1420.9921875 C-66.78543409 1423.75230289 -73.01334523 1425.81179622 -79.265625 1427.93359375 C-80.56661617 1428.37689612 -81.86755939 1428.82033925 -83.16845703 1429.26391602 C-85.7903573 1430.15706079 -88.41323687 1431.04725985 -91.03662109 1431.93603516 C-94.2184332 1433.01867332 -97.39353767 1434.11807644 -100.56640625 1435.2265625 C-149.14456703 1452.03695357 -199.00126356 1463.67103943 -250.578125 1463.49609375 C-251.69630615 1463.49427094 -252.8144873 1463.49244812 -253.96655273 1463.49057007 C-295.10690702 1463.37793819 -336.58497399 1458.65068608 -374.29248047 1441.29199219 C-376.51609861 1440.26958725 -378.74958067 1439.27397235 -380.98828125 1438.28515625 C-390.38504598 1434.06838738 -399.26848924 1429.09703921 -408.19262695 1423.96411133 C-413.7885079 1420.7654707 -419.394557 1417.7798245 -425.265625 1415.12109375 C-435.71625708 1410.37932197 -445.70454228 1404.80478881 -455.703125 1399.18359375 C-456.91210449 1398.50562744 -456.91210449 1398.50562744 -458.14550781 1397.81396484 C-471.71476281 1390.15943993 -483.68088715 1381.44333712 -495.01342773 1370.74584961 C-496.22453432 1369.62608786 -497.4527465 1368.52471833 -498.69165039 1367.43579102 C-506.65223924 1360.4248391 -514.11157284 1352.92642588 -521.59936523 1345.41772461 C-523.89259248 1343.11912165 -526.1911374 1340.82593345 -528.49023438 1338.53320312 C-529.971675 1337.05110188 -531.4528055 1335.56869055 -532.93359375 1334.0859375 C-533.6098027 1333.41175278 -534.28601166 1332.73756805 -534.98271179 1332.04295349 C-538.88260464 1328.1240869 -542.60341395 1324.10013907 -546.20927429 1319.90869141 C-548.18509637 1317.62701358 -550.25902747 1315.44313901 -552.328125 1313.24609375 C-569.18420588 1294.72742523 -582.4375505 1273.42014204 -595.08642578 1251.91943359 C-596.367055 1249.75230418 -597.66385952 1247.59841266 -598.98046875 1245.453125 C-618.2121787 1213.37316907 -630.19832457 1176.85603399 -639.93896484 1140.97558594 C-640.6106465 1138.52148005 -641.30021953 1136.07398451 -642.00390625 1133.62890625 C-647.95958554 1112.89316421 -652.73061117 1091.97682807 -656.515625 1070.74609375 C-656.66255798 1069.922836 -656.80949097 1069.09957825 -656.96087646 1068.25137329 C-672.81164492 978.90793731 -662.40952944 887.51426441 -608.43695068 686.47879028 C-602.01009972 671.78969113 -596.16191338 656.89490193 -590.45703125 641.91064453 C-588.07736659 635.67514472 -585.61371834 629.48801778 -583.02490234 623.33642578 C-581.83300813 620.49340364 -580.66035783 617.64315547 -579.49511719 614.78912354 C-570.35089741 592.40760519 -559.81440026 571.77767643 -547.25390625 551.09375 C-544.33167796 546.26495062 -541.54196597 541.38160584 -538.828125 536.43359375 C-532.05538672 524.21443218 -523.59383822 513.37522649 -514.99609375 502.41015625 C-511.09825832 497.4280599 -507.36834431 492.33873962 -503.703125 487.18359375 C-502.46925652 485.45535393 -501.23457149 483.7277024 -499.99926758 482.00048828 C-499.13943219 480.79519634 -498.28246469 479.58785302 -497.4284668 478.37841797 C-495.47474557 475.61830899 -493.49561464 472.92166019 -491.39453125 470.26953125 C-487.02804361 464.70926992 -484.99139146 460.38689616 -483.59375 453.48828125 C-480.6540903 442.58059656 -473.89716127 432.48799737 -467.703125 423.18359375 C-466.38903109 421.12210892 -465.07667866 419.05951343 -463.765625 416.99609375 C-459.45934213 410.28426539 -455.05352214 403.63812854 -450.640625 396.99609375 C-449.64977905 395.50009644 -449.64977905 395.50009644 -448.63891602 393.97387695 C-444.73909383 388.12052065 -440.71513778 382.38400099 -436.55395508 376.71362305 C-434.01165184 373.23837065 -431.54596666 369.71185334 -429.078125 366.18359375 C-420.29447694 353.69805227 -411.43608829 341.24054797 -401.64453125 329.51953125 C-399.77994735 327.27602789 -397.98301368 324.99461095 -396.203125 322.68359375 C-389.75800243 314.35065495 -382.9868719 306.30298247 -376.09741211 298.33666992 C-372.32667313 293.96086312 -368.7283854 289.47412533 -365.2265625 284.87890625 C-364.72382813 284.31945312 -364.22109375 283.76 -363.703125 283.18359375 C-363.043125 283.18359375 -362.383125 283.18359375 -361.703125 283.18359375 C-361.30806763 282.30525879 -361.30806763 282.30525879 -360.9050293 281.40917969 C-359.64989717 279.08503089 -358.29626546 277.47751637 -356.47265625 275.57421875 C-355.83392578 274.90132813 -355.19519531 274.2284375 -354.53710938 273.53515625 C-353.53647461 272.49488281 -353.53647461 272.49488281 -352.515625 271.43359375 C-347.97567114 266.68132364 -343.53256106 261.88243814 -339.2277832 256.91552734 C-337.52548845 254.98180773 -335.74655389 253.15747964 -333.890625 251.37109375 C-331.78029125 249.33802622 -330.35626406 247.66330234 -328.703125 245.18359375 C-328.043125 245.18359375 -327.383125 245.18359375 -326.703125 245.18359375 C-326.373125 244.19359375 -326.043125 243.20359375 -325.703125 242.18359375 C-325.043125 242.18359375 -324.383125 242.18359375 -323.703125 242.18359375 C-323.36087891 241.35456543 -323.36087891 241.35456543 -323.01171875 240.50878906 C-321.32466982 237.51112972 -319.19499982 235.41594315 -316.765625 232.98046875 C-316.28488525 232.49781555 -315.80414551 232.01516235 -315.30883789 231.5178833 C-314.29591407 230.50360311 -313.28047862 229.49182571 -312.26269531 228.48242188 C-310.70139335 226.93187403 -309.15110003 225.37088872 -307.6015625 223.80859375 C-306.61522439 222.82357641 -305.6282665 221.83917922 -304.640625 220.85546875 C-303.74214844 219.95924805 -302.84367187 219.06302734 -301.91796875 218.13964844 C-299.703125 216.18359375 -299.703125 216.18359375 -297.703125 216.18359375 C-297.373125 215.19359375 -297.043125 214.20359375 -296.703125 213.18359375 C-296.043125 213.18359375 -295.383125 213.18359375 -294.703125 213.18359375 C-294.373125 212.19359375 -294.043125 211.20359375 -293.703125 210.18359375 C-293.043125 210.18359375 -292.383125 210.18359375 -291.703125 210.18359375 C-291.703125 209.52359375 -291.703125 208.86359375 -291.703125 208.18359375 C-290.234375 206.72070312 -290.234375 206.72070312 -288.203125 205.02734375 C-283.90676845 201.37392788 -279.79674121 197.56133567 -275.703125 193.68359375 C-271.64056562 189.8352709 -267.55893088 186.01129235 -263.390625 182.27734375 C-262.43736328 181.42172852 -262.43736328 181.42172852 -261.46484375 180.54882812 C-259.703125 179.18359375 -259.703125 179.18359375 -256.703125 178.18359375 C-256.703125 177.52359375 -256.703125 176.86359375 -256.703125 176.18359375 C-255.13025816 174.76920969 -253.49172504 173.42754974 -251.828125 172.12109375 C-248.01476938 169.0733351 -244.30503691 165.97859034 -240.703125 162.68359375 C-235.53126194 157.97744348 -230.14115368 153.57672771 -224.703125 149.18359375 C-222.86874875 147.68486933 -221.03541275 146.18487077 -219.203125 144.68359375 C-218.28660156 143.93464844 -217.37007813 143.18570313 -216.42578125 142.4140625 C-214.67983664 140.98374059 -212.93732574 139.5492109 -211.19921875 138.109375 C-197.51362868 126.80570442 -183.40328544 116.10676827 -168.95751953 105.796875 C-165.92893842 103.62957329 -162.91420531 101.44341143 -159.89916992 99.25732422 C-156.92454178 97.10231851 -153.94454403 94.95484245 -150.96289062 92.80957031 C-149.42172801 91.70065253 -147.88139778 90.59057721 -146.34179688 89.47949219 C-144.02871166 87.81273819 -141.71043996 86.15346399 -139.390625 84.49609375 C-138.69122803 83.99070068 -137.99183105 83.48530762 -137.27124023 82.96459961 C-133.85472661 80.5353484 -130.72492836 78.51382271 -126.703125 77.18359375 C-126.703125 76.52359375 -126.703125 75.86359375 -126.703125 75.18359375 C-125.29297703 74.19986777 -123.87561688 73.22487515 -122.42382812 72.30371094 C-119.63059455 70.48541417 -117.05624915 68.38465804 -114.453125 66.30859375 C-113.2242462 65.33687542 -111.99506384 64.36554091 -110.765625 63.39453125 C-110.11335937 62.87858398 -109.46109375 62.36263672 -108.7890625 61.83105469 C-88.8889936 46.11409952 -88.8889936 46.11409952 -80.94140625 40.7109375 C-79.65927875 39.83604771 -78.38522143 38.94837584 -77.13745117 38.02514648 C-73.06061811 35.02179399 -68.94027705 32.58445359 -64.390625 30.37109375 C-63.70331299 30.03053955 -63.01600098 29.68998535 -62.30786133 29.33911133 C-57.96164904 27.20982472 -53.56501709 25.23738858 -49.11816406 23.32885742 C-35.89855417 17.64488881 -23.49698811 10.61590706 -11.68725586 2.39257812 C-7.92999162 0.10317582 -4.26047988 0.28936785 0 0 Z " fill="#000000" transform="translate(663.703125,-0.18359375)"/>
<path d="M0 0 C1.09371918 0.00182785 1.09371918 0.00182785 2.20953369 0.00369263 C10.49390616 0.09299679 18.64652064 1.03775506 26.859375 2.0546875 C28.35797301 2.23131844 29.85667127 2.40710096 31.35546875 2.58203125 C78.87251077 8.19751296 78.87251077 8.19751296 97.109375 21.1796875 C98.05876953 21.81777344 98.05876953 21.81777344 99.02734375 22.46875 C110.4104227 30.49558093 119.78261715 40.73113185 128.60351562 51.40185547 C130.12151828 53.19402397 131.68894221 54.92604433 133.28125 56.65234375 C139.95147423 63.94992961 144.60285902 70.9441435 148.28076172 80.12207031 C149.14077449 82.25765889 150.04588558 84.37014036 150.95703125 86.484375 C160.57941998 109.22336996 167.61868123 133.13909018 173.109375 157.1796875 C173.54830078 159.05140625 173.54830078 159.05140625 173.99609375 160.9609375 C174.76048394 164.35822723 175.44856079 167.76069226 176.109375 171.1796875 C176.27179688 171.99695313 176.43421875 172.81421875 176.6015625 173.65625 C179.32846626 187.52789088 180.88499487 201.0466157 181.109375 215.1796875 C181.12452148 215.90816895 181.13966797 216.63665039 181.15527344 217.38720703 C181.2489512 222.32128321 181.21905739 227.2461097 181.109375 232.1796875 C181.08254639 233.40196045 181.08254639 233.40196045 181.05517578 234.64892578 C180.77544703 245.50934367 180.0075029 256.26474366 178.734375 267.0546875 C178.5636145 268.51358398 178.5636145 268.51358398 178.3894043 270.00195312 C176.61628659 284.14904303 173.65531103 297.54805098 169.359375 311.1171875 C168.45610592 314.00892658 167.55908512 316.90257397 166.6640625 319.796875 C166.44291779 320.50991287 166.22177307 321.22295074 165.993927 321.95759583 C164.29674653 327.46934063 162.78283104 333.0187811 161.31616211 338.59643555 C156.75581743 355.84329236 149.41666204 369.72289059 139.109375 384.1796875 C138.55910645 384.953125 138.00883789 385.7265625 137.44189453 386.5234375 C131.41155156 394.95291332 125.4013202 403.33707605 118.26953125 410.87890625 C116.39389238 412.87664819 114.58732337 414.90965061 112.7890625 416.9765625 C102.41892453 428.8701379 91.407809 439.96608354 79.77246094 450.61865234 C78.22300018 452.07303462 76.74509332 453.57307623 75.2734375 455.10546875 C73.109375 457.1796875 73.109375 457.1796875 71.109375 457.1796875 C71.109375 457.8396875 71.109375 458.4996875 71.109375 459.1796875 C69.49554552 460.63628727 67.81574284 462.02017701 66.109375 463.3671875 C62.81134598 465.99726127 59.57752992 468.6250165 56.484375 471.4921875 C24.22862049 499.97262783 -15.07132789 514.61066658 -57.890625 513.1796875 C-77.28805346 511.84061453 -92.84918818 501.41346723 -106.59765625 488.35546875 C-108.39639469 486.64865902 -110.19388557 485.08244364 -112.140625 483.5546875 C-119.58919904 477.1218281 -125.15241121 469.00151282 -130.68701172 460.93066406 C-131.76273565 459.36573668 -132.85857313 457.81467937 -133.95703125 456.265625 C-151.16916858 430.464805 -158.41399862 396.05831105 -162.640625 365.7421875 C-162.75623779 364.915979 -162.87185059 364.08977051 -162.9909668 363.23852539 C-164.89244498 348.49882096 -165.09773875 333.7050725 -165.078125 318.8671875 C-165.07718842 317.94527618 -165.07625183 317.02336487 -165.07528687 316.07351685 C-164.98308668 273.99707833 -159.47358242 231.44815076 -146.890625 191.1796875 C-146.55579102 190.10557617 -146.22095703 189.03146484 -145.87597656 187.92480469 C-140.19268421 169.89589363 -133.6969265 152.41559472 -125.890625 135.1796875 C-125.18317139 133.61226807 -125.18317139 133.61226807 -124.46142578 132.01318359 C-117.23295285 116.14383378 -108.94539993 101.07421569 -99.890625 86.1796875 C-99.41850586 85.39706543 -98.94638672 84.61444336 -98.45996094 83.80810547 C-92.69854628 74.27993812 -86.52772415 65.11903042 -79.890625 56.1796875 C-79.478125 55.62152344 -79.065625 55.06335938 -78.640625 54.48828125 C-73.47502768 47.53086736 -68.03804914 40.95612466 -62.1328125 34.609375 C-60.27302125 32.59406114 -58.50629119 30.54671395 -56.765625 28.4296875 C-54.14793528 25.35390208 -51.28828186 22.72229041 -48.19140625 20.1328125 C-46.52007208 18.71402288 -44.89797355 17.23659354 -43.30859375 15.7265625 C-36.11484482 9.15279467 -29.51186493 6.07262967 -20.28515625 3.23828125 C-17.08466138 2.52856701 -17.08466138 2.52856701 -15.890625 1.1796875 C-10.58438938 0.36016082 -5.37128501 -0.01033525 0 0 Z " fill="#FEFEFE" transform="translate(714.890625,662.8203125)"/>
<path d="M0 0 C17.8477833 5.85318607 33.60148015 21.18563451 46.51586914 34.42895508 C48.17678112 36.06297776 49.90976287 37.54972144 51.70703125 39.03125 C62.81385727 48.65286091 72.5259804 60.16294154 81.14453125 72.03125 C81.70172852 72.79679199 82.25892578 73.56233398 82.83300781 74.35107422 C91.35492368 86.21240824 97.79759602 98.03526529 103.12792969 111.61499023 C104.1949424 114.15106728 105.40250479 116.57093976 106.6640625 119.015625 C109.16152705 123.9098922 111.02316885 128.89104535 112.76953125 134.09375 C113.05570313 134.92712891 113.341875 135.76050781 113.63671875 136.61914062 C114.4817049 139.08688428 115.31449154 141.55844396 116.14453125 144.03125 C116.42264648 144.85093262 116.70076172 145.67061523 116.98730469 146.51513672 C117.25317383 147.30291504 117.51904297 148.09069336 117.79296875 148.90234375 C118.1475415 149.95119751 118.1475415 149.95119751 118.50927734 151.02124023 C120.07486672 155.97492869 120.31997045 160.58307798 120.34765625 165.765625 C120.35462524 166.62780136 120.36159424 167.48997772 120.36877441 168.37828064 C120.38623449 171.17931953 120.39250417 173.9801588 120.39453125 176.78125 C120.39553833 177.73198395 120.39654541 178.6827179 120.39758301 179.66226196 C120.38320455 199.67095001 119.14708943 218.81442705 113.14453125 238.03125 C112.78617188 239.26101563 112.4278125 240.49078125 112.05859375 241.7578125 C95.88804201 296.57265448 61.78304716 357.03759746 9.95703125 385.390625 C-11.14796067 396.42043281 -30.32059247 401.37803955 -53.85546875 395.03125 C-57.04576019 393.96307206 -59.9230654 392.67542991 -62.85546875 391.03125 C-63.55542969 390.64582031 -64.25539062 390.26039063 -64.9765625 389.86328125 C-86.24821501 376.93345325 -100.27807608 351.62494597 -108.85546875 329.03125 C-109.12568848 328.33628418 -109.3959082 327.64131836 -109.67431641 326.92529297 C-114.22845645 315.01187021 -117.16634334 302.87011019 -119.73046875 290.40625 C-119.88176239 289.67595581 -120.03305603 288.94566162 -120.18893433 288.1932373 C-121.75958121 280.54148372 -123.15493073 272.96711426 -123.64892578 265.15478516 C-123.79404219 262.844024 -123.79404219 262.844024 -124.85546875 260.03125 C-126.20827256 248.12785576 -126.04168342 236.07905168 -126.04077148 224.11816406 C-126.04295058 220.93280512 -126.06115313 217.74779775 -126.08007812 214.5625 C-126.13606306 194.15515017 -124.14033194 174.16037917 -120.85546875 154.03125 C-120.70803223 153.09925781 -120.5605957 152.16726563 -120.40869141 151.20703125 C-118.21150138 137.70968156 -114.75985025 124.84752201 -110.41796875 111.90625 C-110.18907959 111.22340942 -109.96019043 110.54056885 -109.72436523 109.83703613 C-105.56130797 97.50924045 -101.16545258 85.13021383 -95.23046875 73.53125 C-94.90401367 72.89292236 -94.57755859 72.25459473 -94.24121094 71.59692383 C-93.51705443 70.18495139 -92.78972275 68.77460385 -92.05957031 67.36572266 C-90.72383727 64.77604719 -89.41105446 62.17528882 -88.09765625 59.57421875 C-83.21203508 49.9686866 -78.15206718 40.51140461 -72.48046875 31.34375 C-72.00512695 30.5602417 -71.52978516 29.7767334 -71.04003906 28.96948242 C-68.1737214 24.45087002 -65.56716702 21.77644115 -60.85546875 19.03125 C-60.11296875 18.268125 -59.37046875 17.505 -58.60546875 16.71875 C-51.05693882 9.34177757 -41.75286209 3.7018151 -31.67578125 0.64453125 C-29.85847671 0.18236973 -29.85847671 0.18236973 -28.85546875 -0.96875 C-25.50857441 -0.78344173 -22.18217445 -0.51460112 -18.84570312 -0.19726562 C-11.43989893 0.39221742 -7.58154817 -2.1268672 0 0 Z " fill="#FEFEFE" transform="translate(209.85546875,673.96875)"/>
<path d="M0 0 C0 3 0 3 -1.97412109 5.33488464 C-2.89789551 6.25199722 -3.82166992 7.1691098 -4.7734375 8.11401367 C-5.28062317 8.62163742 -5.78780884 9.12926117 -6.31036377 9.65226746 C-7.99156378 11.33137445 -9.68314686 12.99960185 -11.375 14.66796875 C-12.54150468 15.82887931 -13.70734954 16.99045321 -14.87255859 18.15266418 C-17.94354302 21.21218539 -21.02342953 24.26259183 -24.10522461 27.31121826 C-27.24742637 30.42275106 -30.38116964 33.54277667 -33.515625 36.66210938 C-39.66881322 42.78310738 -45.83142699 48.89450687 -52 55 C-52.66 54.67 -53.32 54.34 -54 54 C-52.71520959 52.49410612 -51.42195918 50.99542625 -50.125 49.5 C-49.04605469 48.24703125 -49.04605469 48.24703125 -47.9453125 46.96875 C-46.98238281 45.99421875 -46.98238281 45.99421875 -46 45 C-45.34 45 -44.68 45 -44 45 C-43.67 44.01 -43.34 43.02 -43 42 C-42.34 42 -41.68 42 -41 42 C-40.77183594 41.44731445 -40.54367187 40.89462891 -40.30859375 40.32519531 C-38.62154482 37.32753597 -36.49187482 35.2323494 -34.0625 32.796875 C-33.58176025 32.3142218 -33.10102051 31.8315686 -32.60571289 31.33428955 C-31.59278907 30.32000936 -30.57735362 29.30823196 -29.55957031 28.29882812 C-27.99826835 26.74828028 -26.44797503 25.18729497 -24.8984375 23.625 C-23.91209939 22.63998266 -22.9251415 21.65558547 -21.9375 20.671875 C-20.58978516 19.32754395 -20.58978516 19.32754395 -19.21484375 17.95605469 C-17 16 -17 16 -15 16 C-14.67 15.01 -14.34 14.02 -14 13 C-13.34 13 -12.68 13 -12 13 C-11.67 12.01 -11.34 11.02 -11 10 C-10.34 10 -9.68 10 -9 10 C-9 9.34 -9 8.68 -9 8 C-7.28515625 6.30859375 -7.28515625 6.30859375 -5.0625 4.4375 C-4.33160156 3.81746094 -3.60070312 3.19742188 -2.84765625 2.55859375 C-2.23792969 2.04425781 -1.62820313 1.52992188 -1 1 C-0.67 0.67 -0.34 0.34 0 0 Z " fill="#464646" transform="translate(381,200)"/>
</svg>
